<svg xmlns="http://www.w3.org/2000/svg" viewBox="0 0 512 512" width="512" height="512">
  <defs>
    <clipPath id="body">
      <path d="M256 92c56 0 88 56 84 116-4 58-28 110-52 146h-64c-24-36-48-88-52-146-4-60 28-116 84-116z" />
    </clipPath>
  </defs>

  <rect width="512" height="512" fill="#0d1412" />

  <g transform="rotate(-28 256 256) translate(256 256) scale(0.82) translate(-256 -256)">
    <path d="M186 176c-38 14-52 58-28 78 18-22 26-48 34-64z" fill="#e7e2d4" />
    <path d="M326 176c38 14 52 58 28 78-18-22-26-48-34-64z" fill="#e7e2d4" />
    <path d="M256 344c-24 16-46 52-50 92 20-12 38-18 46-16l4-18 4 18c8-2 26 4 46 16-4-40-26-76-50-92z" fill="#e7e2d4" />

    <path d="M256 92c56 0 88 56 84 116-4 58-28 110-52 146h-64c-24-36-48-88-52-146-4-60 28-116 84-116z" fill="#f2eee2" />

    <g clip-path="url(#body)">
      <path d="M204 96c32-12 72-12 104 0 14 6 16 30 4 40-34 12-70 12-104 0-12-10-10-34-4-40z" fill="#df4935" />
      <path d="M300 236c34 6 52 34 44 60-8 24-40 34-66 22-24-12-32-40-20-60 10-18 26-26 42-22z" fill="#df4935" />
      <path d="M214 320c22 0 34 16 30 34-4 16-24 24-40 16-14-8-18-26-8-38 6-8 12-12 18-12z" fill="#df4935" />
    </g>

    <circle cx="224" cy="152" r="9" fill="#20272a" />
    <circle cx="288" cy="152" r="9" fill="#20272a" />
  </g>
</svg>
